<svg id="Layer_1" data-name="Layer 1" xmlns="http://www.w3.org/2000/svg" viewBox="0 0 210.67 53.34"><defs><style>.cls-1,.cls-2{fill:none;}.cls-1,.cls-3{stroke:#231f20;}.cls-1,.cls-2,.cls-3,.cls-6{stroke-miterlimit:10;}.cls-1{stroke-width:9px;}.cls-2{stroke:#fff;stroke-width:16px;}.cls-3,.cls-5,.cls-6{fill:#fff;}.cls-4{fill:#231f20;}.cls-6{stroke:#e8d918;}</style></defs><title>soloaventyr</title><path class="cls-1" d="M209.45,89.92" transform="translate(-83.33 -89.92)"/><path class="cls-1" d="M269.12,190.66" transform="translate(-83.33 -89.92)"/><path class="cls-2" d="M135,105" transform="translate(-83.33 -89.92)"/><path class="cls-3" d="M234.31,160" transform="translate(-83.33 -89.92)"/><path class="cls-3" d="M166.27,160" transform="translate(-83.33 -89.92)"/><polygon class="cls-4" points="186.1 0 200.12 45.05 172.07 45.05 186.1 0"/><ellipse class="cls-4" cx="185.79" cy="43" rx="24.88" ry="10.34"/><path class="cls-5" d="M269.53,131.8a21.44,21.44,0,0,1-5.3-.67c-4.65-1.19-6-2.39-6.89-3l1.47-4.26-.62,1.81.62-1.81c.37.29,11.18,7,21.21-.1l1.5,4.34A18.84,18.84,0,0,1,269.53,131.8Z" transform="translate(-83.33 -89.92)"/><rect class="cls-6" x="184.8" y="36.27" width="4.04" height="6.17" rx="0.69" ry="0.69"/><path class="cls-5" d="M97.16,136.69a.46.46,0,0,1,0,.13.76.76,0,0,1,0,.11c0,.17-.06.25-.19.25a2.69,2.69,0,0,1-.62-.06,5.6,5.6,0,0,0-.72-.08,6.57,6.57,0,0,0-1,.11,1,1,0,0,1-.35,0c-.12,0-.18-.09-.18-.27a.43.43,0,0,1,0-.18q0-.09.45-.8a2,2,0,0,0,.32-1V115a3.59,3.59,0,0,1-1.34.8,4.73,4.73,0,0,1-1.5.25,4.65,4.65,0,0,1-1.94-.53,7.05,7.05,0,0,1-1.94-1.35V135a1.89,1.89,0,0,0,.32,1q.42.7.44.76a.44.44,0,0,1,0,.13.78.78,0,0,1,0,.11c0,.17-.06.25-.19.25a2.71,2.71,0,0,1-.62-.06,5.64,5.64,0,0,0-.72-.08,6.62,6.62,0,0,0-1,.11,1,1,0,0,1-.36,0c-.12,0-.18-.09-.18-.27a.45.45,0,0,1,0-.18q0-.09.45-.8a2,2,0,0,0,.32-1V114a.88.88,0,0,0-.25,0,1.6,1.6,0,0,0-1.25.71,4.09,4.09,0,0,0-.53,3.29,1.6,1.6,0,0,0,.26.48.58.58,0,0,0,.48.23.29.29,0,0,0,.19,0c.08,0,.13,0,.13.16a.65.65,0,0,1-.08.3,2.16,2.16,0,0,1-.39.55.9.9,0,0,1-.64.32,1,1,0,0,1-.89-.62,4.17,4.17,0,0,1-.45-2.12,8.12,8.12,0,0,1,.38-2.62,5,5,0,0,1,.94-1.62,2.37,2.37,0,0,1,.79-.62,2.86,2.86,0,0,1,1.32-.3v-4.61a2,2,0,0,0-.31-1l-.46-.8a.72.72,0,0,1,0-.27c0-.12.06-.18.16-.18a2.76,2.76,0,0,1,.63.06,5.62,5.62,0,0,0,.73.08,5.39,5.39,0,0,0,.85-.07l.49-.07c.13,0,.19.08.19.25a.72.72,0,0,1,0,.25s-.16.3-.43.75a2,2,0,0,0-.33,1v4.88a9.06,9.06,0,0,0,2,1.52,4.36,4.36,0,0,0,2.11.67,3.26,3.26,0,0,0,1.15-.16,4.68,4.68,0,0,0,1.46-1.07v-5.84a2,2,0,0,0-.31-1l-.46-.8a.7.7,0,0,1,0-.27c0-.12.06-.18.16-.18a2.74,2.74,0,0,1,.63.06,5.57,5.57,0,0,0,.73.08,5.36,5.36,0,0,0,.85-.07l.49-.07c.13,0,.19.08.19.25a.72.72,0,0,1,0,.25s-.16.3-.43.75a2,2,0,0,0-.32,1V135a1.91,1.91,0,0,0,.31,1Q97.14,136.63,97.16,136.69Z" transform="translate(-83.33 -89.92)"/><path class="cls-5" d="M108.85,136.59a1.49,1.49,0,0,1,.07.37c0,.15-.05.23-.16.23l-.34-.07a2.61,2.61,0,0,0-.57-.07,1.48,1.48,0,0,0-.42.07l-.27.07c-.16,0-.24-.08-.24-.25a.87.87,0,0,1,.05-.25,4.83,4.83,0,0,0,.15-.63,4.42,4.42,0,0,0,.06-.74l-.06-2.19a9.3,9.3,0,0,1-1.35,3.26,2.83,2.83,0,0,1-2.18,1.53q-1.61,0-2.71-2.08a12,12,0,0,1-1.17-5.68,12.34,12.34,0,0,1,1.27-5.89Q102.2,122,103.9,122a2.3,2.3,0,0,1,1.58.71,4.64,4.64,0,0,1,1.15,1.71,12.72,12.72,0,0,0-.53-3,16.77,16.77,0,0,0-1.47-3.86q-1.06-1.92-2.19-1.92a1.49,1.49,0,0,0-1.2.64,3.18,3.18,0,0,0-.57,2,3.62,3.62,0,0,0,.17,1.21q.17.48.48.48t.37-.3a1.5,1.5,0,0,0,.16-.71,4.62,4.62,0,0,0,0-.58l-.07-.51c0-.11,0-.17,0-.21a.24.24,0,0,1,.14,0c.19,0,.37.24.53.59a2.82,2.82,0,0,1,.24,1.19,3.71,3.71,0,0,1-.39,1.79q-.39.72-.9.72t-1-.89a6,6,0,0,1-.4-2.4,4.52,4.52,0,0,1,1-3.06,2.58,2.58,0,0,1,2-1q1.16,0,2.29,1.61a13.37,13.37,0,0,1,1.83,4.37,34.3,34.3,0,0,1,.78,4.82q.19,1.83.35,5t.28,4.37a6.63,6.63,0,0,0,.2,1.14Zm-1.78-7.3a8.36,8.36,0,0,0-.87-4.12,2.59,2.59,0,0,0-2.28-1.54q-1.15,0-2,1.64a8.73,8.73,0,0,0-.86,4.06,9.77,9.77,0,0,0,.87,4.35q.87,1.77,2.07,1.77a2.53,2.53,0,0,0,2.23-1.72A10.15,10.15,0,0,0,107.08,129.29Z" transform="translate(-83.33 -89.92)"/><path class="cls-5" d="M119.94,123.18a37.5,37.5,0,0,1-.54,6.48,28.16,28.16,0,0,1-1.61,5.72h.32a2.18,2.18,0,0,0,.61-.08,1.09,1.09,0,0,0,.55-.47l.35-.62a.14.14,0,0,1,.06-.07l0,0c.08,0,.1.14.06.41s0,.5,0,.82,0,.53,0,.64,0,.46,0,.71,0,.51,0,.78,0,.45-.08.45-.07,0-.1-.09a5.34,5.34,0,0,0-.44-.49,1.36,1.36,0,0,0-.45-.27,2.41,2.41,0,0,0-.66-.07l-.48,0a2.47,2.47,0,0,0-.47.12q-.3.11-.3-.41a1.06,1.06,0,0,1,0-.27q.56-1.92.88-3.17a36.78,36.78,0,0,0,.73-3.7,31,31,0,0,0,.29-4.27,19.16,19.16,0,0,0-.73-5.82q-.76-2.35-2.07-2.35a1.94,1.94,0,0,0-1.58,1.07,8.52,8.52,0,0,0-1,2.67v14a1.78,1.78,0,0,0,.23.84l.4.72a1.14,1.14,0,0,1,.12.46c0,.15-.06.23-.18.23l-.47-.07a4.79,4.79,0,0,0-.77-.07,3.5,3.5,0,0,0-.63,0l-.54.09a.22.22,0,0,1-.25-.26,1.09,1.09,0,0,1,.09-.39,5.52,5.52,0,0,1,.3-.61,2.06,2.06,0,0,0,.35-1v-13.5a7.89,7.89,0,0,0-.53-3.15,4.91,4.91,0,0,0-.8-1.19.36.36,0,0,1-.08-.25.7.7,0,0,1,.06-.3l.23-.44q.09-.17.24-.49t.23-.52l.16-.41c0-.08.07-.11.11-.11a.1.1,0,0,1,.09.07,11.92,11.92,0,0,1,.79,1.85,11.32,11.32,0,0,1,.67,2.81,13.7,13.7,0,0,1,1.12-2.85q1-1.8,2-1.8,1.88,0,2.89,3.08A17.43,17.43,0,0,1,119.94,123.18Z" transform="translate(-83.33 -89.92)"/><path class="cls-5" d="M130.88,129.84a11.06,11.06,0,0,1-1.43,5.91,3.8,3.8,0,0,1-3.19,2.17,3.39,3.39,0,0,1-2.6-1.12,5.76,5.76,0,0,1-1.26-4,7.8,7.8,0,0,1,.68-3.44q.68-1.4,1.63-1.4a2,2,0,0,1,1.6.78,4,4,0,0,1,.7,2.51,4.38,4.38,0,0,1-.34,1.79q-.34.77-.81.77a.68.68,0,0,1-.65-.37.47.47,0,0,1-.05-.18.24.24,0,0,1,.14-.23,1,1,0,0,0,.3-.48,3.51,3.51,0,0,0,.12-1.07,1.73,1.73,0,0,0-.32-1.08.9.9,0,0,0-.7-.42,1.47,1.47,0,0,0-1.25.78,4.62,4.62,0,0,0,.61,5.11,3.12,3.12,0,0,0,2.2.87,2.87,2.87,0,0,0,2.32-1.3,6.64,6.64,0,0,0,1.17-4.13,6.93,6.93,0,0,0-.86-3.86,5.71,5.71,0,0,0-2-1.58l-1.7-.84a3.52,3.52,0,0,1-1.41-1.48,7.69,7.69,0,0,1-.58-3.33,6.62,6.62,0,0,1,1.18-4,3.09,3.09,0,0,1,2.5-1.48,3,3,0,0,1,2.06.71,3.72,3.72,0,0,1,1,2.9,3.64,3.64,0,0,1-.55,2.08,1.44,1.44,0,0,1-1.18.75,1.32,1.32,0,0,1-1.07-.53,3.34,3.34,0,0,1-.33-2.91,1.36,1.36,0,0,1,.43-.63l.11,0s.07.08.07.23l0,.46a2,2,0,0,0,.15.82.63.63,0,0,0,.61.41q.27,0,.47-.41a2.19,2.19,0,0,0,.2-1,1.6,1.6,0,0,0-.68-1.46,2.39,2.39,0,0,0-1.31-.32,2.32,2.32,0,0,0-1.81,1,4.17,4.17,0,0,0-.89,2.72,3.88,3.88,0,0,0,.58,2.28,7.37,7.37,0,0,0,2.34,1.51,9.33,9.33,0,0,1,1.88,1.19,5,5,0,0,1,1.38,2A9.5,9.5,0,0,1,130.88,129.84Z" transform="translate(-83.33 -89.92)"/><path class="cls-5" d="M148.7,126.41a19,19,0,0,1-1.61,8.19q-1.57,3.31-3.7,3.31t-3.79-3.41a20.16,20.16,0,0,1-1.54-8.32,19.28,19.28,0,0,1,1.57-8.16q1.57-3.39,3.77-3.39t3.75,3.45A20.4,20.4,0,0,1,148.7,126.41Zm-.9,1a16.75,16.75,0,0,0-1.59-7.17q-1.64-3.51-3.59-3.51-1.52,0-2.59,2.28a12.64,12.64,0,0,0-1.07,5.39,18.8,18.8,0,0,0,1.62,8q1.59,3.42,3.5,3.42,1.51,0,2.57-2.15A14.35,14.35,0,0,0,147.8,127.42Z" transform="translate(-83.33 -89.92)"/><path class="cls-5" d="M159.55,131.66a4.43,4.43,0,0,1-.08.78,10.79,10.79,0,0,1-1.19,3.38q-1.18,2.1-2.74,2.1-2.29,0-3.63-3a21.24,21.24,0,0,1-1.38-8.49,20.24,20.24,0,0,1,1.56-8.25q1.56-3.53,3.74-3.53A2.65,2.65,0,0,1,158,116.1a7.4,7.4,0,0,1,1,4.06,9,9,0,0,1-.6,3.5q-.6,1.43-1.49,1.43a1.54,1.54,0,0,1-1.29-1,5.21,5.21,0,0,1-.58-2.6,5.75,5.75,0,0,1,.31-1.92,1.76,1.76,0,0,1,.56-1c.08-.06.14,0,.18,0a.54.54,0,0,1,0,.32c0,.21-.06.39-.07.52a6.09,6.09,0,0,0-.06.82c0,.17,0,.3,0,.39a2.14,2.14,0,0,0,.34,1.08.79.79,0,0,0,.64.38q.5,0,.8-.8a5.64,5.64,0,0,0,.3-2,4.43,4.43,0,0,0-.76-2.74,2,2,0,0,0-1.62-.91q-1.76,0-2.86,2.93a21.24,21.24,0,0,0-1.09,7.34,17.19,17.19,0,0,0,1.12,6.55q1.16,2.81,2.87,2.81a2.46,2.46,0,0,0,1.79-.7,7.75,7.75,0,0,0,1.47-2.59s0-.16.13-.39a1.5,1.5,0,0,1,.15-.34s.08,0,.14,0S159.55,131.51,159.55,131.66Z" transform="translate(-83.33 -89.92)"/><path class="cls-5" d="M170.14,123.18a37.43,37.43,0,0,1-.54,6.48,28.16,28.16,0,0,1-1.61,5.72h.32a2.18,2.18,0,0,0,.61-.08,1.09,1.09,0,0,0,.55-.47l.34-.59q.07-.11.12-.11c.06,0,.08.11.08.32s0,.61-.06.9,0,.51,0,.65c0,.29,0,.62,0,1s0,.59,0,.66c0,.23,0,.34-.08.34s-.07,0-.13-.11a2.09,2.09,0,0,0-.45-.54,1.38,1.38,0,0,0-.44-.24,2.42,2.42,0,0,0-.67-.07l-.48,0a3,3,0,0,0-.47.09l-.2,0a.13.13,0,0,1-.14-.09.63.63,0,0,1,0-.3,2.91,2.91,0,0,1,.08-.34q.56-1.91.88-3.17a36.69,36.69,0,0,0,.73-3.69,30.83,30.83,0,0,0,.29-4.26,19.22,19.22,0,0,0-.73-5.81q-.76-2.34-2.07-2.35a2,2,0,0,0-1.58,1.12,9.33,9.33,0,0,0-1,2.62v14a1.79,1.79,0,0,0,.22.8q.19.36.39.7a1.12,1.12,0,0,1,.13.45c0,.18-.08.27-.23.27l-.31,0a6.34,6.34,0,0,0-.86-.11,3.31,3.31,0,0,0-.61,0l-.54.09q-.25,0-.25-.28a1.34,1.34,0,0,1,.1-.42c.17-.31.3-.55.39-.72a1.83,1.83,0,0,0,.24-.84v-24.4q0-.66,0-1c0-.26-.1-.37-.25-.32a1.4,1.4,0,0,0-.39.44,2.53,2.53,0,0,1-.37.47q-.16.11-.16-.25a1.21,1.21,0,0,1,.06-.32q.06-.21.57-1.28l.65-1.4q.35-.78.77-1.86a8.85,8.85,0,0,1,.38-.89.15.15,0,0,1,.06-.07l.05,0c.06,0,.09.12.09.37q-.05.73-.09,1.82t0,2.3V119a13,13,0,0,1,1-2.69q.9-1.64,1.91-1.64,1.88,0,2.89,3.08A17.43,17.43,0,0,1,170.14,123.18Z" transform="translate(-83.33 -89.92)"/><path class="cls-5" d="M190.77,104.87a3.85,3.85,0,0,1-.52,2.1,1.48,1.48,0,0,1-1.23.82,2.82,2.82,0,0,1-1.63-.62,6,6,0,0,0-2.57-1.35q-2.32,0-3.84,4.31a28.9,28.9,0,0,0-1.44,9.65,33.54,33.54,0,0,0,1.8,11.61q1.86,5,4.57,5a3.47,3.47,0,0,0,.7-.09,3.34,3.34,0,0,0,1-.48,2.56,2.56,0,0,0,.88-.87,5.24,5.24,0,0,1-.3-.77c-.06-.2-.13-.49-.21-.88a8.09,8.09,0,0,1-.16-1.45q0-.86,0-2.23V119.43a3.17,3.17,0,0,1-.73.57,1.63,1.63,0,0,1-.75.16q-.42,0-1.13-.94t-1.13-.94a.76.76,0,0,0-.59.33,1.56,1.56,0,0,0-.27,1q0,1.42.56,1.28a.77.77,0,0,0,.28-.17.6.6,0,0,0,.14-.24c0-.08,0-.11.07-.11s.05.05.05.16a3.89,3.89,0,0,1,.05.66c0,.12,0,.28,0,.47a1.76,1.76,0,0,1-.25.7c-.15.27-.32.41-.51.41s-.54-.26-.7-.78a6,6,0,0,1-.25-1.8c0-.15,0-.27,0-.34a5.63,5.63,0,0,1,.62-2.51,1.55,1.55,0,0,1,1.31-1,2.16,2.16,0,0,1,1.38.55,4.22,4.22,0,0,0,2.28,1.19,1.44,1.44,0,0,0,.81-.3l.92-.75q.15,0,.08.27l-.31.8a8.1,8.1,0,0,0-.46,2.72v9.68a12.43,12.43,0,0,0,.33,3.1,12.26,12.26,0,0,0,.5,1.37.71.71,0,0,1,.05.25.54.54,0,0,1-.07.25,5,5,0,0,1-1.74,1.48,5.67,5.67,0,0,1-2.85.94q-3.15,0-5.34-5.18A31.3,31.3,0,0,1,178,120.57a30.08,30.08,0,0,1,1.86-11.3q1.94-4.77,5-4.77a4.06,4.06,0,0,1,2.28.89,5.18,5.18,0,0,0,1.5.89q.9,0,.9-1.41a1.92,1.92,0,0,0-.16-.89q-.16-.3-.38-.3a.15.15,0,0,0-.17,0l-.13.08s-.08.06-.1,0,0-.06,0-.14a1.47,1.47,0,0,1,0-.32,2.21,2.21,0,0,1,.42-1,.8.8,0,0,1,.61-.33q.56,0,.86.81A6,6,0,0,1,190.77,104.87Z" transform="translate(-83.33 -89.92)"/><path class="cls-5" d="M200,118a6,6,0,0,1-.32,2.15q-.32.82-.87.82a1,1,0,0,1-.66-.23,1.08,1.08,0,0,1-.36-.64.41.41,0,0,1,0-.21c0-.08,0-.11.09-.11a.59.59,0,0,0,.35-.11.93.93,0,0,0,.29-.41,2.84,2.84,0,0,0,.18-1.07,2.35,2.35,0,0,0-.27-1.21,1,1,0,0,0-.9-.52q-.74,0-1.46,1.44a11.92,11.92,0,0,0-1,3.08v14a1.79,1.79,0,0,0,.23.84l.4.72a1,1,0,0,1,.1.42q0,.28-.23.28l-.31,0a6.34,6.34,0,0,0-.86-.11,3.47,3.47,0,0,0-.63,0l-.54.09q-.23,0-.23-.26a1.22,1.22,0,0,1,.13-.49l.28-.51a2.09,2.09,0,0,0,.32-1v-13.5a7.46,7.46,0,0,0-.39-2.6,4.43,4.43,0,0,0-1.12-1.5s0-.06,0-.14a.55.55,0,0,1,0-.23l.48-1c.09-.2.17-.39.24-.57s.07-.17.14-.39.09-.16.14-.16.06,0,.09.07a11,11,0,0,1,.87,1.53,8.2,8.2,0,0,1,.72,2.85,10.13,10.13,0,0,1,1.15-3.17q.89-1.48,2-1.48a1.61,1.61,0,0,1,1.46,1A4.89,4.89,0,0,1,200,118Z" transform="translate(-83.33 -89.92)"/><path class="cls-5" d="M210.49,132.35a9.38,9.38,0,0,1-1.31,3.63q-1.21,2-2.64,2a3.06,3.06,0,0,1-1.63-.43,5,5,0,0,1-1.55-1.71q-.29.8-.53,1.73a7.64,7.64,0,0,0-.3,1.69,1.8,1.8,0,0,0,.16.89.38.38,0,0,0,.34.16.28.28,0,0,0,.15,0l.13-.09s.05,0,.07,0a.51.51,0,0,1,0,.37,3.73,3.73,0,0,1-.25,1q-.25.59-.58.59t-.58-.57a4,4,0,0,1-.23-1.48,8.55,8.55,0,0,1,.23-1.78q.06-.3.9-3.24a18.2,18.2,0,0,1-1.19-3.77,24.35,24.35,0,0,1-.46-4.86,21.86,21.86,0,0,1,1.43-8.29q1.43-3.49,3.54-3.49a2.52,2.52,0,0,1,1.73.89l1,1a.6.6,0,0,0,.27.14,1.42,1.42,0,0,0,.35,0l.31,0c.08,0,.11.07.11.2a.39.39,0,0,1-.07.25,4.59,4.59,0,0,0-.37.62,8.39,8.39,0,0,0-.47,1q-1,2.47-2.35,6.46t-2.52,8a6.36,6.36,0,0,0,1.25,1.48,2.45,2.45,0,0,0,1.57.62,2.26,2.26,0,0,0,1.86-.94,10,10,0,0,0,1.19-2.44l.15-.44c.06-.16.12-.22.19-.19s.14.19.14.43A3.33,3.33,0,0,1,210.49,132.35Zm-2.86-13.47a3.06,3.06,0,0,0-.67-2.1,1.75,1.75,0,0,0-1.36-.64q-1.48,0-2.44,2.76a19,19,0,0,0-.9,6.19,19.57,19.57,0,0,0,.47,4.24,14.41,14.41,0,0,0,1,3.06l1.11-3.58q.64-2.05,1.09-3.45l1.15-3.56A11.34,11.34,0,0,0,207.62,118.88Z" transform="translate(-83.33 -89.92)"/><path class="cls-5" d="M215.77,116.46c0,.24,0,.37-.15.37l-.51,0q-.46,0-.87,0v15.11a8.06,8.06,0,0,0,.42,2.76,10.57,10.57,0,0,0,.61,1.21.6.6,0,0,1,.08.32.44.44,0,0,1-.08.24l-.19.26-.21.37a6.77,6.77,0,0,0-.38.82q-.08.18-.17.18a.2.2,0,0,1-.15-.09,5.08,5.08,0,0,1-.79-1.87,17.79,17.79,0,0,1-.48-4.43V116.74a5.68,5.68,0,0,0-.64,0l-.62.06c-.1,0-.15-.12-.15-.37v-.73c0-.24.06-.37.19-.37l.46,0a6.8,6.8,0,0,0,.75,0v-1.73q0-1.32-.26-1.48l-.24-.07c-.1,0-.15-.11-.15-.32a.65.65,0,0,1,.06-.27q.23-.43.47-.92c.16-.33.34-.7.53-1.13s.4-.92.52-1.26l.36-1c0-.08,0-.11.08-.11s.08.11.08.34l-.06,1.19q-.06,1.44-.06,3v3.79l.68,0,.7-.07c.1,0,.15.11.15.32Z" transform="translate(-83.33 -89.92)"/><path class="cls-5" d="M227.28,136.59a1.49,1.49,0,0,1,.07.37c0,.15-.05.23-.16.23l-.34-.07a2.61,2.61,0,0,0-.57-.07,1.48,1.48,0,0,0-.42.07l-.27.07c-.16,0-.24-.08-.24-.25a.87.87,0,0,1,.05-.25,4.83,4.83,0,0,0,.15-.63,4.42,4.42,0,0,0,.06-.74l-.06-2.19a9.3,9.3,0,0,1-1.35,3.26,2.83,2.83,0,0,1-2.18,1.53q-1.61,0-2.71-2.08a12,12,0,0,1-1.17-5.68,12.34,12.34,0,0,1,1.27-5.89q1.22-2.28,2.92-2.28a2.3,2.3,0,0,1,1.58.71,4.64,4.64,0,0,1,1.15,1.71,12.72,12.72,0,0,0-.53-3,16.77,16.77,0,0,0-1.47-3.86q-1.06-1.92-2.19-1.92a1.49,1.49,0,0,0-1.2.64,3.18,3.18,0,0,0-.57,2,3.62,3.62,0,0,0,.17,1.21q.17.48.48.48t.37-.3a1.5,1.5,0,0,0,.16-.71,4.62,4.62,0,0,0,0-.58l-.07-.51c0-.11,0-.17,0-.21a.24.24,0,0,1,.14,0c.19,0,.37.24.53.59a2.82,2.82,0,0,1,.24,1.19,3.71,3.71,0,0,1-.39,1.79q-.39.72-.9.72t-1-.89a6,6,0,0,1-.4-2.4,4.52,4.52,0,0,1,1-3.06,2.58,2.58,0,0,1,2-1q1.16,0,2.29,1.61a13.37,13.37,0,0,1,1.83,4.37,34.3,34.3,0,0,1,.78,4.82q.19,1.83.35,5t.28,4.37a6.63,6.63,0,0,0,.2,1.14Zm-1.78-7.3a8.36,8.36,0,0,0-.87-4.12,2.59,2.59,0,0,0-2.28-1.54q-1.15,0-2,1.64a8.73,8.73,0,0,0-.86,4.06,9.77,9.77,0,0,0,.87,4.35q.87,1.77,2.07,1.77a2.53,2.53,0,0,0,2.23-1.72A10.15,10.15,0,0,0,225.5,129.29Z" transform="translate(-83.33 -89.92)"/><text x="-83.33" y="-89.92"></text></svg>